<svg width="268" height="132" viewBox="0 0 268 132" fill="none" xmlns="http://www.w3.org/2000/svg">
<g filter="url(#filter0_d_610_3)">
<path d="M30.3963 100V30.1818H57.9418C63.2372 30.1818 67.7486 31.1932 71.4759 33.2159C75.2031 35.2159 78.044 38 79.9986 41.5682C81.9759 45.1136 82.9645 49.2045 82.9645 53.8409C82.9645 58.4773 81.9645 62.5682 79.9645 66.1136C77.9645 69.6591 75.0668 72.4205 71.2713 74.3977C67.4986 76.375 62.9304 77.3636 57.5668 77.3636H40.0099V65.5341H55.1804C58.0213 65.5341 60.3622 65.0455 62.2031 64.0682C64.0668 63.0682 65.4531 61.6932 66.3622 59.9432C67.294 58.1705 67.7599 56.1364 67.7599 53.8409C67.7599 51.5227 67.294 49.5 66.3622 47.7727C65.4531 46.0227 64.0668 44.6705 62.2031 43.7159C60.3395 42.7386 57.9759 42.25 55.1122 42.25H45.1577V100H30.3963ZM115.3 101.023C109.913 101.023 105.277 99.9318 101.391 97.75C97.527 95.5455 94.5497 92.4318 92.4588 88.4091C90.3679 84.3636 89.3224 79.5795 89.3224 74.0568C89.3224 68.6705 90.3679 63.9432 92.4588 59.875C94.5497 55.8068 97.4929 52.6364 101.288 50.3636C105.107 48.0909 109.584 46.9545 114.72 46.9545C118.175 46.9545 121.391 47.5114 124.368 48.625C127.368 49.7159 129.982 51.3636 132.209 53.5682C134.459 55.7727 136.209 58.5455 137.459 61.8864C138.709 65.2045 139.334 69.0909 139.334 73.5455V77.5341H95.1179V68.5341H125.663C125.663 66.4432 125.209 64.5909 124.3 62.9773C123.391 61.3636 122.129 60.1023 120.516 59.1932C118.925 58.2614 117.072 57.7955 114.959 57.7955C112.754 57.7955 110.8 58.3068 109.095 59.3295C107.413 60.3295 106.095 61.6818 105.141 63.3864C104.186 65.0682 103.697 66.9432 103.675 69.0114V77.5682C103.675 80.1591 104.152 82.3977 105.107 84.2841C106.084 86.1705 107.459 87.625 109.232 88.6477C111.004 89.6705 113.107 90.1818 115.538 90.1818C117.152 90.1818 118.629 89.9545 119.97 89.5C121.311 89.0455 122.459 88.3636 123.413 87.4545C124.368 86.5455 125.095 85.4318 125.595 84.1136L139.027 85C138.345 88.2273 136.947 91.0455 134.834 93.4545C132.743 95.8409 130.038 97.7045 126.72 99.0455C123.425 100.364 119.618 101.023 115.3 101.023ZM172.675 101.023C167.288 101.023 162.652 99.9318 158.766 97.75C154.902 95.5455 151.925 92.4318 149.834 88.4091C147.743 84.3636 146.697 79.5795 146.697 74.0568C146.697 68.6705 147.743 63.9432 149.834 59.875C151.925 55.8068 154.868 52.6364 158.663 50.3636C162.482 48.0909 166.959 46.9545 172.095 46.9545C175.55 46.9545 178.766 47.5114 181.743 48.625C184.743 49.7159 187.357 51.3636 189.584 53.5682C191.834 55.7727 193.584 58.5455 194.834 61.8864C196.084 65.2045 196.709 69.0909 196.709 73.5455V77.5341H152.493V68.5341H183.038C183.038 66.4432 182.584 64.5909 181.675 62.9773C180.766 61.3636 179.504 60.1023 177.891 59.1932C176.3 58.2614 174.447 57.7955 172.334 57.7955C170.129 57.7955 168.175 58.3068 166.47 59.3295C164.788 60.3295 163.47 61.6818 162.516 63.3864C161.561 65.0682 161.072 66.9432 161.05 69.0114V77.5682C161.05 80.1591 161.527 82.3977 162.482 84.2841C163.459 86.1705 164.834 87.625 166.607 88.6477C168.379 89.6705 170.482 90.1818 172.913 90.1818C174.527 90.1818 176.004 89.9545 177.345 89.5C178.686 89.0455 179.834 88.3636 180.788 87.4545C181.743 86.5455 182.47 85.4318 182.97 84.1136L196.402 85C195.72 88.2273 194.322 91.0455 192.209 93.4545C190.118 95.8409 187.413 97.7045 184.095 99.0455C180.8 100.364 176.993 101.023 172.675 101.023ZM206.186 100V47.6364H220.266V56.7727H220.811C221.766 53.5227 223.368 51.0682 225.618 49.4091C227.868 47.7273 230.459 46.8864 233.391 46.8864C234.118 46.8864 234.902 46.9318 235.743 47.0227C236.584 47.1136 237.322 47.2386 237.959 47.3977V60.2841C237.277 60.0795 236.334 59.8977 235.129 59.7386C233.925 59.5795 232.822 59.5 231.822 59.5C229.686 59.5 227.777 59.9659 226.095 60.8977C224.436 61.8068 223.118 63.0795 222.141 64.7159C221.186 66.3523 220.709 68.2386 220.709 70.375V100H206.186Z" fill="#2D65F6"/>
</g>
<defs>
<filter id="filter0_d_610_3" x="0.396484" y="0.181641" width="267.562" height="130.841" filterUnits="userSpaceOnUse" color-interpolation-filters="sRGB">
<feFlood flood-opacity="0" result="BackgroundImageFix"/>
<feColorMatrix in="SourceAlpha" type="matrix" values="0 0 0 0 0 0 0 0 0 0 0 0 0 0 0 0 0 0 127 0" result="hardAlpha"/>
<feOffset/>
<feGaussianBlur stdDeviation="15"/>
<feComposite in2="hardAlpha" operator="out"/>
<feColorMatrix type="matrix" values="0 0 0 0 0 0 0 0 0 0 0 0 0 0 0 0 0 0 0.1 0"/>
<feBlend mode="normal" in2="BackgroundImageFix" result="effect1_dropShadow_610_3"/>
<feBlend mode="normal" in="SourceGraphic" in2="effect1_dropShadow_610_3" result="shape"/>
</filter>
</defs>
</svg>
